HIERARCHY
ROOT Root
{
	OFFSET -0.000007 0.000445 0.000000
	CHANNELS 6 Xposition Yposition Zposition Xrotation Yrotation Zrotation
	JOINT Body
	{
		OFFSET 0.000000 0.000000 2.143352
		CHANNELS 6 Xposition Yposition Zposition Xrotation Yrotation Zrotation
		JOINT Wool
		{
			OFFSET 0.000000 0.000000 1.211460
			CHANNELS 6 Xposition Yposition Zposition Xrotation Yrotation Zrotation
			End Site
			{
				OFFSET 0.000000 0.000000 1.000000
			}
		}
		JOINT Head
		{
			OFFSET 2.050163 0.000000 1.211460
			CHANNELS 6 Xposition Yposition Zposition Xrotation Yrotation Zrotation
			End Site
			{
				OFFSET 0.000000 0.000000 1.000000
			}
		}
		JOINT Tail
		{
			OFFSET -1.739532 0.000000 1.800304
			CHANNELS 6 Xposition Yposition Zposition Xrotation Yrotation Zrotation
			End Site
			{
				OFFSET 0.000000 0.000000 -1.096757
			}
		}
		JOINT Femur.BR
		{
			OFFSET -1.458411 -0.841292 0.979440
			CHANNELS 6 Xposition Yposition Zposition Xrotation Yrotation Zrotation
			JOINT Leg.BR
			{
				OFFSET 0.308560 0.000000 -0.752393
				CHANNELS 3 Xrotation Yrotation Zrotation
				End Site
				{
					OFFSET -0.667856 0.000000 -1.289117
				}
			}
		}
		JOINT Sternum.R
		{
			OFFSET 1.436668 -0.841292 1.079381
			CHANNELS 6 Xposition Yposition Zposition Xrotation Yrotation Zrotation
			JOINT Leg.FR
			{
				OFFSET -0.225208 0.000000 -0.824895
				CHANNELS 3 Xrotation Yrotation Zrotation
				End Site
				{
					OFFSET 0.310631 0.000000 -1.397838
				}
			}
		}
		JOINT Femur.BL
		{
			OFFSET -1.458411 0.827921 0.979440
			CHANNELS 6 Xposition Yposition Zposition Xrotation Yrotation Zrotation
			JOINT Leg.BL
			{
				OFFSET 0.308560 -0.000000 -0.752393
				CHANNELS 3 Xrotation Yrotation Zrotation
				End Site
				{
					OFFSET -0.667856 -0.000000 -1.289117
				}
			}
		}
		JOINT Sternum.L
		{
			OFFSET 1.436668 0.827921 1.079381
			CHANNELS 6 Xposition Yposition Zposition Xrotation Yrotation Zrotation
			JOINT Leg.FL
			{
				OFFSET -0.225208 0.000000 -0.824895
				CHANNELS 3 Xrotation Yrotation Zrotation
				End Site
				{
					OFFSET 0.310631 0.000000 -1.397838
				}
			}
		}
	}
	JOINT Leg.FR.003
	{
		OFFSET 1.522091 -0.841292 1.000000
		CHANNELS 6 Xposition Yposition Zposition Xrotation Yrotation Zrotation
		JOINT Hoof.FR
		{
			OFFSET 0.000000 0.000000 0.000000
			CHANNELS 6 Xposition Yposition Zposition Xrotation Yrotation Zrotation
			End Site
			{
				OFFSET 0.528072 0.000000 -0.947424
			}
		}
	}
	JOINT Leg.FL.001
	{
		OFFSET 1.522091 0.827921 1.000000
		CHANNELS 6 Xposition Yposition Zposition Xrotation Yrotation Zrotation
		JOINT Hoof.FL
		{
			OFFSET 0.000000 0.000000 0.000000
			CHANNELS 6 Xposition Yposition Zposition Xrotation Yrotation Zrotation
			End Site
			{
				OFFSET 0.528072 -0.000000 -0.947424
			}
		}
	}
	JOINT Leg.BR.001
	{
		OFFSET -1.817707 -0.841292 1.081282
		CHANNELS 6 Xposition Yposition Zposition Xrotation Yrotation Zrotation
		JOINT Hoof.BR
		{
			OFFSET 0.000000 0.000000 0.000000
			CHANNELS 6 Xposition Yposition Zposition Xrotation Yrotation Zrotation
			End Site
			{
				OFFSET 0.590199 0.000000 -1.040613
			}
		}
	}
	JOINT Leg.BL.001
	{
		OFFSET -1.817707 0.827921 1.081282
		CHANNELS 6 Xposition Yposition Zposition Xrotation Yrotation Zrotation
		JOINT Hoof.BL
		{
			OFFSET 0.000000 0.000000 0.000000
			CHANNELS 6 Xposition Yposition Zposition Xrotation Yrotation Zrotation
			End Site
			{
				OFFSET 0.590198 0.000000 -1.040613
			}
		}
	}
}
MOTION
Frames: 4
Frame Time: 0.041667
-0.000007 0.000445 0.000000 -0.000000 0.000000 -0.000000 0.000000 0.000000 2.034952 -0.000000 0.000000 -0.000000 0.000000 0.000000 0.866575 -0.000000 0.000000 -0.000000 2.050163 0.000000 1.091015 -0.000000 0.000000 -0.000000 -1.739532 0.000000 1.800304 0.000003 11.347803 -0.000000 -1.458411 -0.841291 0.979439 -0.000002 -28.747522 0.000001 -0.000001 -13.811441 0.000001 1.436668 -0.841292 1.079381 1.239872 20.967158 0.033846 1.346490 -7.852166 0.296375 -1.458411 0.827921 0.979440 0.000007 25.657293 -0.000005 0.000001 -13.608258 0.000001 1.436668 0.827921 1.079381 -0.000002 -30.302773 -0.000001 0.000000 16.811978 -0.000000 0.916673 -0.762092 0.994388 0.000006 -0.596047 0.000004 -0.000000 -0.000000 -0.000000 -0.000000 0.000003 -0.000000 2.286612 0.827921 1.001696 0.000003 -23.883858 0.000012 -0.000000 -0.000000 -0.000000 0.000000 0.000002 -0.000000 -0.446056 -0.841292 1.101891 -0.000000 -19.991057 -0.000003 0.000000 0.000000 -0.000000 -0.000000 0.000000 0.000000 -2.428294 0.827921 1.081282 -0.000000 0.000000 -0.000000 0.000000 -0.000000 -0.000000 -0.000000 0.000000 0.000000 
-0.000007 0.000445 0.000000 -0.000000 0.000000 -0.000000 0.000000 0.000000 2.062792 -0.000000 0.000000 -0.000000 0.000000 0.000000 0.880900 -0.000000 0.000000 -0.000000 2.050163 0.000000 1.070325 0.000000 0.633684 -0.000000 -1.739532 0.000000 1.800304 0.000003 10.334858 -0.000000 -1.458411 -0.841291 0.979440 -0.000002 -26.679822 0.000001 -0.000002 -14.195220 0.000001 1.436668 -0.841292 1.079381 1.137429 21.808388 0.118229 1.533099 -13.451962 0.379621 -1.458411 0.827921 0.979440 0.000005 20.952818 -0.000004 0.000000 -9.408516 0.000001 1.436668 0.827921 1.079382 -0.000002 -35.827225 -0.000001 0.000000 27.368816 0.000000 1.025426 -0.762092 1.033502 0.000006 1.823750 0.000004 0.000000 0.000000 0.000000 -0.000000 -0.000000 0.000000 2.252362 0.827921 0.997828 0.000002 -21.867942 0.000012 -0.000000 0.000000 0.000000 -0.000000 0.000000 0.000000 -0.506254 -0.841292 1.096687 -0.000000 -18.330595 -0.000003 -0.000000 -0.000000 -0.000000 -0.000000 -0.000002 -0.000000 -2.351639 0.827921 1.099869 0.000002 5.305708 -0.000000 0.000000 0.000000 -0.000000 -0.000000 0.000000 0.000000 
-0.000007 0.000445 0.000000 -0.000000 0.000000 -0.000000 0.000000 0.000000 2.141208 -0.000000 0.000000 -0.000000 0.000000 0.000000 0.923278 -0.000000 0.000000 -0.000000 2.050163 0.000000 1.042648 0.000000 2.419415 -0.000000 -1.739532 0.000000 1.800304 0.000002 7.494550 -0.000000 -1.458411 -0.841292 0.979440 -0.000002 -19.726686 0.000000 -0.000002 -16.518102 0.000001 1.436668 -0.841292 1.079382 1.052720 19.800461 0.220396 1.753700 -22.924355 0.554282 -1.458411 0.827921 0.979440 0.000002 9.015980 -0.000002 -0.000000 -0.565460 -0.000000 1.436668 0.827921 1.079381 -0.000002 -32.660807 -0.000001 -0.000001 27.394168 0.000000 1.331749 -0.762092 1.143675 0.000007 8.754877 0.000004 0.000000 -0.000000 0.000000 0.000000 -0.000000 -0.000000 2.147166 0.827921 0.986933 0.000002 -15.914687 0.000012 -0.000000 -0.000000 0.000000 -0.000000 0.000003 0.000000 -0.690453 -0.841292 1.082028 0.000001 -13.506294 -0.000002 0.000000 0.000000 -0.000000 -0.000000 0.000000 -0.000000 -2.121619 0.827921 1.152223 0.000007 20.835009 -0.000001 0.000000 0.000000 0.000000 -0.000000 0.000000 0.000000 
-0.000007 0.000445 0.000000 -0.000000 0.000000 -0.000000 0.000000 0.000000 2.241894 -0.000000 0.000000 -0.000000 0.000000 0.000000 0.987845 -0.000000 0.000000 -0.000000 2.050163 0.000000 1.014787 0.000000 4.712977 -0.000000 -1.739532 0.000000 1.800304 0.000002 3.846981 -0.000000 -1.458411 -0.841292 0.979440 -0.000002 -6.973806 0.000000 -0.000002 -24.146517 0.000001 1.436668 -0.841292 1.079381 1.164147 10.707884 0.219439 1.638370 -25.760550 0.580568 -1.458411 0.827921 0.979440 0.000001 -4.332319 0.000000 0.000002 5.523389 -0.000001 1.436668 0.827921 1.079381 0.000000 -28.226720 -0.000000 0.000002 27.369569 0.000000 1.725066 -0.762092 1.285136 0.000008 17.843646 0.000004 0.000000 -0.000000 0.000000 0.000000 -0.000000 0.000000 1.988678 0.827921 0.972943 0.000001 -7.816932 0.000012 -0.000000 0.000000 -0.000000 -0.000000 -0.000002 0.000000 -0.966259 -0.841292 1.063205 0.000002 -6.997381 -0.000002 0.000000 0.000000 -0.000000 -0.000000 0.000002 0.000000 -1.788404 0.827921 1.219446 0.000016 41.338508 -0.000006 0.000000 -0.000000 0.000000 -0.000000 -0.000003 -0.000000 
